<mxfile host="app.diagrams.net" agent="Mozilla/5.0 (Macintosh; Intel Mac OS X 10_15_7) AppleWebKit/537.36 (KHTML, like Gecko) Chrome/142.0.0.0 Safari/537.36" version="28.2.5">
  <diagram name="Page-1" id="WxGkRKSv5kf-lFZOpKAl">
    <mxGraphModel dx="1018" dy="633" grid="0" gridSize="10" guides="1" tooltips="1" connect="1" arrows="1" fold="1" page="1" pageScale="1" pageWidth="850" pageHeight="1100" math="0" shadow="0">
      <root>
        <mxCell id="0" />
        <mxCell id="1" parent="0" />
        <mxCell id="n21BklcHMmTwbdA0G5cs-2" value="&lt;p style=&quot;margin-top: 0px;&quot;&gt;&lt;font&gt;&lt;font style=&quot;&quot;&gt;&lt;b style=&quot;&quot;&gt;D0: &lt;/b&gt;This diagram gives the highest level view of Pixel Coliseum. The square in the middle represents the system. The arrows on the left represent the inputs, while the arrows on the right represent the outputs&lt;/font&gt;&lt;/font&gt;&lt;/p&gt;" style="text;html=1;whiteSpace=wrap;overflow=hidden;rounded=0;" parent="1" vertex="1">
          <mxGeometry x="124" y="190" width="610" height="60" as="geometry" />
        </mxCell>
        <mxCell id="n21BklcHMmTwbdA0G5cs-3" value="Pixel Coliseum" style="whiteSpace=wrap;html=1;aspect=fixed;" parent="1" vertex="1">
          <mxGeometry x="340" y="250" width="170" height="170" as="geometry" />
        </mxCell>
        <mxCell id="n21BklcHMmTwbdA0G5cs-4" value="" style="endArrow=classic;html=1;rounded=0;" parent="1" edge="1">
          <mxGeometry relative="1" as="geometry">
            <mxPoint x="130" y="280" as="sourcePoint" />
            <mxPoint x="340" y="280" as="targetPoint" />
          </mxGeometry>
        </mxCell>
        <mxCell id="n21BklcHMmTwbdA0G5cs-5" value="Player input (mouse, keyboard)" style="edgeLabel;resizable=0;html=1;;align=center;verticalAlign=middle;" parent="n21BklcHMmTwbdA0G5cs-4" connectable="0" vertex="1">
          <mxGeometry relative="1" as="geometry" />
        </mxCell>
        <mxCell id="n21BklcHMmTwbdA0G5cs-7" value="" style="endArrow=classic;html=1;rounded=0;" parent="1" edge="1">
          <mxGeometry relative="1" as="geometry">
            <mxPoint x="130" y="334.5" as="sourcePoint" />
            <mxPoint x="340" y="334.5" as="targetPoint" />
          </mxGeometry>
        </mxCell>
        <mxCell id="n21BklcHMmTwbdA0G5cs-8" value="Teammate actions (network)" style="edgeLabel;resizable=0;html=1;;align=center;verticalAlign=middle;" parent="n21BklcHMmTwbdA0G5cs-7" connectable="0" vertex="1">
          <mxGeometry relative="1" as="geometry" />
        </mxCell>
        <mxCell id="n21BklcHMmTwbdA0G5cs-9" value="" style="endArrow=classic;html=1;rounded=0;" parent="1" edge="1">
          <mxGeometry relative="1" as="geometry">
            <mxPoint x="130" y="390" as="sourcePoint" />
            <mxPoint x="340" y="390" as="targetPoint" />
          </mxGeometry>
        </mxCell>
        <mxCell id="n21BklcHMmTwbdA0G5cs-10" value="AI/Opponent logic" style="edgeLabel;resizable=0;html=1;;align=center;verticalAlign=middle;" parent="n21BklcHMmTwbdA0G5cs-9" connectable="0" vertex="1">
          <mxGeometry relative="1" as="geometry" />
        </mxCell>
        <mxCell id="n21BklcHMmTwbdA0G5cs-11" value="" style="endArrow=classic;html=1;rounded=0;" parent="1" edge="1">
          <mxGeometry relative="1" as="geometry">
            <mxPoint x="510" y="280" as="sourcePoint" />
            <mxPoint x="720" y="280" as="targetPoint" />
          </mxGeometry>
        </mxCell>
        <mxCell id="n21BklcHMmTwbdA0G5cs-12" value="Game state updates" style="edgeLabel;resizable=0;html=1;;align=center;verticalAlign=middle;" parent="n21BklcHMmTwbdA0G5cs-11" connectable="0" vertex="1">
          <mxGeometry relative="1" as="geometry" />
        </mxCell>
        <mxCell id="n21BklcHMmTwbdA0G5cs-13" value="" style="endArrow=classic;html=1;rounded=0;" parent="1" edge="1">
          <mxGeometry relative="1" as="geometry">
            <mxPoint x="510" y="334.5" as="sourcePoint" />
            <mxPoint x="720" y="334.5" as="targetPoint" />
          </mxGeometry>
        </mxCell>
        <mxCell id="n21BklcHMmTwbdA0G5cs-14" value="Chat messages" style="edgeLabel;resizable=0;html=1;;align=center;verticalAlign=middle;" parent="n21BklcHMmTwbdA0G5cs-13" connectable="0" vertex="1">
          <mxGeometry relative="1" as="geometry" />
        </mxCell>
        <mxCell id="n21BklcHMmTwbdA0G5cs-15" value="" style="endArrow=classic;html=1;rounded=0;" parent="1" edge="1">
          <mxGeometry relative="1" as="geometry">
            <mxPoint x="510" y="390" as="sourcePoint" />
            <mxPoint x="720" y="390" as="targetPoint" />
          </mxGeometry>
        </mxCell>
        <mxCell id="n21BklcHMmTwbdA0G5cs-16" value="Statistics and leaderboards" style="edgeLabel;resizable=0;html=1;;align=center;verticalAlign=middle;" parent="n21BklcHMmTwbdA0G5cs-15" connectable="0" vertex="1">
          <mxGeometry relative="1" as="geometry" />
        </mxCell>
      </root>
    </mxGraphModel>
  </diagram>
</mxfile>
